:version 1.10
:name ASF
:units
  mass 1
  length 1
  angle deg
:documentation
  ASF file generated by Kaydara
:root
  axis xyz
  order  tx ty tz rx ry rz
  position 0 0 0
  orientation 0 0 0
:bonedata
  begin
    id 1
    name lfemurDummy
    direction 0.61522 -0.761478 0.204097
    length 5.68318
    axis 0 -0 0 xyz
  end
  begin
    id 2
    name lfemur
    direction 0.34202 -0.939693 -5.84747e-008
    length 16.9147
    axis 0 -0 20 xyz
    dof rx ry rz
    limits( -inf , inf )
( -inf , inf )
( -inf , inf )

  end
  begin
    id 3
    name ltibia
    direction 0.34202 -0.939693 1.20839e-009
    length 18.0532
    axis 0 -0 20 xyz
    dof rz ry rx
    limits( -inf , inf )
( -inf , inf )
( -inf , inf )

  end
  begin
    id 4
    name lfoot
    direction 0.0841971 -0.23133 0.969225
    length 5.23822
    axis -90 7.62852e-016 20 xyz
    dof ry rx rz
    limits( -inf , inf )
( -inf , inf )
( -inf , inf )

  end
  begin
    id 5
    name ltoes
    direction 0 0 0
    length 0
    axis 0 0 0 xyz
    dof rz ry rx
    limits( -inf , inf )
( -inf , inf )
( -inf , inf )

  end
  begin
    id 6
    name rfemurDummy
    direction -0.625247 -0.75382 0.202044
    length 5.74091
    axis 0 -0 0 xyz
  end
  begin
    id 7
    name rfemur
    direction -0.34202 -0.939693 -1.47013e-008
    length 16.4922
    axis 0 -0 -20 xyz
    dof rx ry rz
    limits( -inf , inf )
( -inf , inf )
( -inf , inf )

  end
  begin
    id 8
    name rtibia
    direction -0.34202 -0.939693 -7.74345e-010
    length 18.2421
    axis 0 -0 -20 xyz
    dof rz ry rx
    limits( -inf , inf )
( -inf , inf )
( -inf , inf )

  end
  begin
    id 9
    name rfoot
    direction -0.124331 -0.341598 0.931586
    length 5.45787
    axis -90 -7.62852e-016 -20 xyz
    dof ry rx rz
    limits( -inf , inf )
( -inf , inf )
( -inf , inf )

  end
  begin
    id 10
    name rtoes
    direction 0 0 0
    length 0
    axis 0 0 0 xyz
    dof rz ry rx
    limits( -inf , inf )
( -inf , inf )
( -inf , inf )

  end
  begin
    id 11
    name lowerbackDummy
    direction 0 0 0
    length 0
    axis 0 -0 0 xyz
  end
  begin
    id 12
    name lowerback
    direction -0.0218484 0.994884 -0.0986304
    length 4.45607
    axis 0 -0 0 xyz
    dof rx ry rz
    limits( -inf , inf )
( -inf , inf )
( -inf , inf )

  end
  begin
    id 13
    name upperback
    direction -0.00973057 0.999717 -0.0217111
    length 4.47449
    axis 0 -0 0 xyz
    dof rx ry rz
    limits( -inf , inf )
( -inf , inf )
( -inf , inf )

  end
  begin
    id 14
    name thorax
    direction -0.000928171 0.999699 0.0245198
    length 4.50973
    axis 0 -0 0 xyz
    dof rx ry rz
    limits( -inf , inf )
( -inf , inf )
( -inf , inf )

  end
  begin
    id 15
    name rclavicle
    direction -0.9009 0.425937 -0.0834055
    length 7.28587
    axis 0 -0 0 xyz
    dof rx ry rz
    limits( -inf , inf )
( -inf , inf )
( -inf , inf )

  end
  begin
    id 16
    name rhumerus
    direction -1 -2.23604e-007 -1.42637e-007
    length 13.5704
    axis 180 30 90 xyz
    dof rx ry rz
    limits( -inf , inf )
( -inf , inf )
( -inf , inf )

  end
  begin
    id 17
    name rradius
    direction -1 5.68281e-008 -4.4952e-007
    length 8.06782
    axis 180 30 90 xyz
    dof rz ry rx
    limits( -inf , inf )
( -inf , inf )
( -inf , inf )

  end
  begin
    id 18
    name rwrist
    direction -1 1.51393e-007 1.38143e-007
    length 4.03391
    axis -90 -90 0 xyz
    dof rz rx ry
    limits( -inf , inf )
( -inf , inf )
( -inf , inf )

  end
  begin
    id 19
    name rthumb
    direction 0 0 0
    length 0
    axis 0 0 0 xyz
    dof ry rx rz
    limits( -inf , inf )
( -inf , inf )
( -inf , inf )

  end
  begin
    id 20
    name rhand
    direction -1 -3.34077e-007 -5.59631e-007
    length 1.29744
    axis -90 -90 0 xyz
    dof ry rx rz
    limits( -inf , inf )
( -inf , inf )
( -inf , inf )

  end
  begin
    id 21
    name rfingers
    direction 0 0 0
    length 0
    axis 0 0 0 xyz
    dof rz ry rx
    limits( -inf , inf )
( -inf , inf )
( -inf , inf )

  end
  begin
    id 22
    name lclavicle
    direction 0.940017 0.332249 -0.0773232
    length 8.29589
    axis 0 -0 0 xyz
    dof rx ry rz
    limits( -inf , inf )
( -inf , inf )
( -inf , inf )

  end
  begin
    id 23
    name lhumerus
    direction 1 7.41158e-008 -1.44768e-008
    length 12.0042
    axis 180 -30 -90 xyz
    dof rx ry rz
    limits( -inf , inf )
( -inf , inf )
( -inf , inf )

  end
  begin
    id 24
    name lradius
    direction 1 -1.32972e-007 3.10821e-007
    length 8.1902
    axis 180 -30 -90 xyz
    dof rz ry rx
    limits( -inf , inf )
( -inf , inf )
( -inf , inf )

  end
  begin
    id 25
    name lwrist
    direction 1 3.08957e-007 4.01394e-007
    length 4.09509
    axis -90 90 0 xyz
    dof rz rx ry
    limits( -inf , inf )
( -inf , inf )
( -inf , inf )

  end
  begin
    id 26
    name lthumb
    direction 0 0 0
    length 0
    axis 0 0 0 xyz
    dof ry rx rz
    limits( -inf , inf )
( -inf , inf )
( -inf , inf )

  end
  begin
    id 27
    name lhand
    direction 1 -1.64125e-007 -6.99514e-007
    length 1.37229
    axis -90 90 0 xyz
    dof ry rx rz
    limits( -inf , inf )
( -inf , inf )
( -inf , inf )

  end
  begin
    id 28
    name lfingers
    direction 0 0 0
    length 0
    axis 0 0 0 xyz
    dof rz ry rx
    limits( -inf , inf )
( -inf , inf )
( -inf , inf )

  end
  begin
    id 29
    name lowerneck
    direction -0.030798 0.998024 0.0547665
    length 3.93918
    axis 0 -0 0 xyz
    dof rx ry rz
    limits( -inf , inf )
( -inf , inf )
( -inf , inf )

  end
  begin
    id 30
    name upperneck
    direction 0.0531588 0.996611 -0.0627736
    length 3.95491
    axis 0 -0 0 xyz
    dof rx ry rz
    limits( -inf , inf )
( -inf , inf )
( -inf , inf )

  end
  begin
    id 31
    name head
    direction 0 0 0
    length 0
    axis 0 0 0 xyz
    dof rx ry rz
    limits( -inf , inf )
( -inf , inf )
( -inf , inf )

  end
:hierarchy
  begin
    root lfemurDummy rfemurDummy lowerbackDummy
    lfemurDummy lfemur
    lfemur ltibia
    ltibia lfoot
    lfoot ltoes
    rfemurDummy rfemur
    rfemur rtibia
    rtibia rfoot
    rfoot rtoes
    lowerbackDummy lowerback
    lowerback upperback
    upperback thorax
    thorax rclavicle lclavicle lowerneck
    rclavicle rhumerus
    rhumerus rradius
    rradius rwrist
    rwrist rthumb rhand
    rhand rfingers
    lclavicle lhumerus
    lhumerus lradius
    lradius lwrist
    lwrist lthumb lhand
    lhand lfingers
    lowerneck upperneck
    upperneck head
  end

:SAMPLES-PER-SECOND 30
:FULLY-SPECIFIED
:DEGREES
64
root  3.943044557 38.84155694 -1.51555557 -10.46002197 -33.64599609 5.508972168
lowerback  8.697730064 -0.09721899778 -5.19671011
upperback  3.170200109 -0.5977569818 -0.1722439975
thorax  -1.532590032 -0.3346529901 2.802010059
lowerneck  -8.215929985 4.145890236 -3.693370104
upperneck  9.517809868 5.218540192 7.587820053
head  3.873539925 2.8542099 3.209840059
lclavicle  0 -9.442270133e-015 7.951389973e-016
lhumerus  5.589399815 -23.13249969 80.62339783
lradius  2.63286208e-031 -2.353057863e-031 138.2120056
lwrist  -7.062250077e-031 -1.765562519e-031 7.994709969
lhand  -1.496451383e-031 -27.76390076 20.11240005
lfingers  90 7.125020027 -90
lthumb  89.89689403 5.08795885 91.16245106
rclavicle  0 -9.442270133e-015 7.951389973e-016
rhumerus  13.87870026 13.10009956 -74.25710297
rradius  -2.585399671e-031 2.405109681e-031 137.0690002
rwrist  1.412450015e-030 -0 -9.200570107
rhand  -7.920061211e-032 -33.2840004 9.303460121
rfingers  -90 -7.125020027 -90
rthumb  -92.93752616 -24.25625642 -97.11982154
rfemur  -20.7656002 16.5821991 13.62320042
rtibia  -0 0 61.25740051
rfoot  -9.415721426e-032 -20.35409927 6.033659935
rtoes  5.373923086 19.29304026 -105.8922705
lfemur  -3.700870037 4.199339867 -21.8416996
ltibia  -0 0 54.58720016
lfoot  4.73940314e-032 -21.35829926 2.040810108
ltoes  -4.250644065 -19.5611806 -102.515957
65
root  3.917799972 38.91088831 -1.473111149 -10.23199463 -33.4940033 5.310974121
lowerback  8.3354702 -0.2855679989 -4.891329765
upperback  3.092969894 -0.802093029 -0.1824119985
thorax  -1.400529981 -0.4361479878 2.635159969
lowerneck  -8.154330254 4.075610161 -3.551810026
upperneck  9.484919548 5.094940186 7.686639786
head  3.861880064 2.801879883 3.209019899
lclavicle  0 -9.442270133e-015 7.951389973e-016
lhumerus  5.550169945 -23.54019928 81.19560242
lradius  2.615914844e-031 -2.37188397e-031 137.8009949
lwrist  -7.062250077e-031 -1.765562519e-031 7.748000145
lhand  -1.496451383e-031 -27.76390076 20.11240005
lfingers  90 7.125020027 -90
lthumb  89.89689403 5.08795885 91.16245106
rclavicle  0 -9.442270133e-015 7.951389973e-016
rhumerus  13.42679977 13.86130047 -74.65190125
rradius  -2.584224009e-031 2.406372853e-031 137.0410004
rwrist  1.412450015e-030 -3.531125038e-031 -8.722000122
rhand  -7.920061211e-032 -33.2840004 9.303460121
rfingers  -90 -7.125020027 -90
rthumb  -92.93752616 -24.25625642 -97.11982154
rfemur  -20.30949974 16.56999969 13.78250027
rtibia  -0 0 60.55989838
rfoot  -4.712475342e-032 -20.5048008 6.218830109
rtoes  5.373923086 19.29304026 -105.8922705
lfemur  -4.193920135 4.643149853 -21.87179947
ltibia  -0 0 55.16809845
lfoot  4.720050985e-032 -20.7493 3.66602993
ltoes  -4.250644065 -19.5611806 -102.515957
66
root  3.90099991 39.01088745 -1.435922262 -10.0380249 -33.41400146 5.12298584
lowerback  7.952829838 -0.4791710079 -4.569900036
upperback  3.066390038 -1.012040019 -0.1552730054
thorax  -1.205719948 -0.5429390073 2.495699883
lowerneck  -8.17881012 4.061649799 -3.526829958
upperneck  9.52628994 5.057529926 7.812280178
head  3.877899885 2.791559935 3.243390083
lclavicle  0 -9.442270133e-015 7.951389973e-016
lhumerus  5.47728014 -23.71109962 81.78639984
lradius  2.603793272e-031 -2.385184402e-031 137.5090027
lwrist  -7.062250077e-031 -1.765562519e-031 7.511300087
lhand  -1.496451383e-031 -27.76390076 20.11240005
lfingers  90 7.125020027 -90
lthumb  89.89689403 5.08795885 91.16245106
rclavicle  0 -9.442270133e-015 7.951389973e-016
rhumerus  12.92570019 14.79909992 -75.11589813
rradius  -2.580777404e-031 2.410068884e-031 136.9589996
rwrist  7.062250077e-031 -1.765562519e-031 -8.180459976
rhand  -7.920061211e-032 -33.2840004 9.303460121
rfingers  -90 -7.125020027 -90
rthumb  -92.93752616 -24.25625642 -97.11982154
rfemur  -19.83799934 16.73130035 13.98110008
rtibia  -0 0 59.74100113
rfoot  -4.708907351e-032 -20.38839912 6.066160202
rtoes  5.373923086 19.29304026 -105.8922705
lfemur  -4.832220078 5.344600201 -21.87529945
ltibia  -0 0 56.08729935
lfoot  4.67970807e-032 -19.40369987 5.728159904
ltoes  -4.250644065 -19.5611806 -102.515957
67
root  3.891555531 39.15688823 -1.391420026 -9.969970703 -33.43400574 5.00402832
lowerback  7.678709984 -0.6061210036 -4.29321003
upperback  3.050800085 -1.144440055 -0.08532369882
thorax  -1.064970016 -0.6102600098 2.419039965
lowerneck  -8.392089844 4.039090157 -3.444760084
upperneck  9.835260391 5.003920078 7.814489841
head  4.012499809 2.774280071 3.241699934
lclavicle  0 -9.442270133e-015 7.951389973e-016
lhumerus  5.289760113 -23.89509964 82.47460175
lradius  2.593277579e-031 -2.396613327e-031 137.2570038
lwrist  -7.062250077e-031 -3.531125038e-031 7.292540073
lhand  -1.496451383e-031 -27.76390076 20.11240005
lfingers  90 7.125020027 -90
lthumb  89.89689403 5.08795885 91.16245106
rclavicle  0 -9.442270133e-015 7.951389973e-016
rhumerus  12.30169964 15.69909954 -75.5298996
rradius  -2.581240123e-031 2.409573295e-031 136.9700012
rwrist  7.062250077e-031 -0 -7.911690235
rhand  -7.920061211e-032 -33.2840004 9.303460121
rfingers  -90 -7.125020027 -90
rthumb  -92.93752616 -24.25625642 -97.11982154
rfemur  -19.25460052 17.08239937 14.1697998
rtibia  -0 0 58.80960083
rfoot  -4.698307199e-032 -20.03770065 5.633419991
rtoes  5.373923086 19.29304026 -105.8922705
lfemur  -5.558750153 5.988110065 -21.89220047
ltibia  -0 0 57.19219971
lfoot  -0 -17.70400047 6.99134016
ltoes  -4.250644065 -19.5611806 -102.515957
